ffmpeg version 3.4.8-0ubuntu0.2 Copyright (c) 2000-2020 the FFmpeg developers
  built with gcc 7 (Ubuntu 7.5.0-3ubuntu1~18.04)
  configuration: --prefix=/usr --extra-version=0ubuntu0.2 --toolchain=hardened --libdir=/usr/lib/x86_64-linux-gnu --incdir=/usr/include/x86_64-linux-gnu --enable-gpl --disable-stripping --enable-avresample --enable-avisynth --enable-gnutls --enable-ladspa --enable-libass --enable-libbluray --enable-libbs2b --enable-libcaca --enable-libcdio --enable-libflite --enable-libfontconfig --enable-libfreetype --enable-libfribidi --enable-libgme --enable-libgsm --enable-libmp3lame --enable-libmysofa --enable-libopenjpeg --enable-libopenmpt --enable-libopus --enable-libpulse --enable-librubberband --enable-librsvg --enable-libshine --enable-libsnappy --enable-libsoxr --enable-libspeex --enable-libssh --enable-libtheora --enable-libtwolame --enable-libvorbis --enable-libvpx --enable-libwavpack --enable-libwebp --enable-libx265 --enable-libxml2 --enable-libxvid --enable-libzmq --enable-libzvbi --enable-omx --enable-openal --enable-opengl --enable-sdl2 --enable-libdc1394 --enable-libdrm --enable-libiec61883 --enable-chromaprint --enable-frei0r --enable-libopencv --enable-libx264 --enable-shared
  libavutil      55. 78.100 / 55. 78.100
  libavcodec     57.107.100 / 57.107.100
  libavformat    57. 83.100 / 57. 83.100
  libavdevice    57. 10.100 / 57. 10.100
  libavfilter     6.107.100 /  6.107.100
  libavresample   3.  7.  0 /  3.  7.  0
  libswscale      4.  8.100 /  4.  8.100
  libswresample   2.  9.100 /  2.  9.100
  libpostproc    54.  7.100 / 54.  7.100
[rawvideo @ 0x55cfaeebaa20] Estimating duration from bitrate, this may be inaccurate
Input #0, rawvideo, from '../../SVC-Encoder-20220109T061506Z-001/SVC-Encoder/Dataset/RollerCoaster/ERP_8x8/tile_yuv/Tile_56_480x240.yuv':
  Duration: 00:00:10.00, start: 0.000000, bitrate: 41472 kb/s
    Stream #0:0: Video: rawvideo (I420 / 0x30323449), yuv420p, 480x240, 41472 kb/s, 30 tbr, 30 tbn, 30 tbc
Stream mapping:
  Stream #0:0 -> #0:0 (rawvideo (native) -> h264 (libx264))
Press [q] to stop, [?] for help
[libx264 @ 0x55cfaeec7c60] using cpu capabilities: MMX2 SSE2Fast LZCNT SSSE3 SSE4.2 AVX
[libx264 @ 0x55cfaeec7c60] profile High, level 2.1
Output #0, rawvideo, to 'RollerCoaster_Tile_56_480x240_x264_QP_32.h264':
  Metadata:
    encoder         : Lavf57.83.100
    Stream #0:0: Video: h264 (libx264), yuv420p, 480x240, q=-1--1, 30 fps, 30 tbn, 30 tbc
    Metadata:
      encoder         : Lavc57.107.100 libx264
    Side data:
      cpb: bitrate max/min/avg: 0/0/0 buffer size: 0 vbv_delay: -1
frame=  293 fps=0.0 q=38.0 PSNR=Y:nan U:nan V:nan *:nan size=      46kB time=00:00:08.33 bitrate=  44.8kbits/s speed=16.4x    frame=  300 fps=0.0 q=38.0 LPSNR=Y:inf U:inf V:inf *:inf size=      52kB time=00:00:09.93 bitrate=  42.7kbits/s speed=17.3x    
video:52kB audio:0kB subtitle:0kB other streams:0kB global headers:0kB muxing overhead: 0.000000%
[libx264 @ 0x55cfaeec7c60] frame I:2     Avg QP:30.29  size:  5104  PSNR Mean Y:41.68 U:45.59 V:43.28 Avg:42.38 Global:42.36
[libx264 @ 0x55cfaeec7c60] frame P:76    Avg QP:30.37  size:   310  PSNR Mean Y:40.67 U:45.73 V:43.75 Avg:41.63 Global:41.61
[libx264 @ 0x55cfaeec7c60] frame B:222   Avg QP:37.46  size:    87  PSNR Mean Y:40.58 U:45.73 V:43.74 Avg:41.56 Global:41.55
[libx264 @ 0x55cfaeec7c60] consecutive B-frames:  0.7%  1.3%  2.0% 96.0%
[libx264 @ 0x55cfaeec7c60] mb I  I16..4: 32.1% 46.7% 21.2%
[libx264 @ 0x55cfaeec7c60] mb P  I16..4:  1.1%  0.2%  0.0%  P16..4: 27.6%  2.2%  0.4%  0.0%  0.0%    skip:68.4%
[libx264 @ 0x55cfaeec7c60] mb B  I16..4:  0.0%  0.0%  0.0%  B16..8: 16.3%  0.2%  0.0%  direct: 0.0%  skip:83.5%  L0:41.4% L1:58.4% BI: 0.2%
[libx264 @ 0x55cfaeec7c60] 8x8 transform intra:35.6% inter:89.9%
[libx264 @ 0x55cfaeec7c60] coded y,uvDC,uvAC intra: 25.6% 34.3% 13.7% inter: 0.8% 0.9% 0.0%
[libx264 @ 0x55cfaeec7c60] i16 v,h,dc,p: 12% 70%  9%  8%
[libx264 @ 0x55cfaeec7c60] i8 v,h,dc,ddl,ddr,vr,hd,vl,hu:  3% 49% 27%  3%  3%  2%  3%  1%  9%
[libx264 @ 0x55cfaeec7c60] i4 v,h,dc,ddl,ddr,vr,hd,vl,hu:  7% 64% 16%  1%  1%  0%  2%  0%  8%
[libx264 @ 0x55cfaeec7c60] i8c dc,h,v,p: 42% 52%  1%  4%
[libx264 @ 0x55cfaeec7c60] Weighted P-Frames: Y:2.6% UV:0.0%
[libx264 @ 0x55cfaeec7c60] ref P L0: 60.5% 10.0% 22.4%  7.0%  0.1%
[libx264 @ 0x55cfaeec7c60] ref B L0: 66.4% 26.3%  7.3%
[libx264 @ 0x55cfaeec7c60] ref B L1: 81.7% 18.3%
[libx264 @ 0x55cfaeec7c60] PSNR Mean Y:40.611 U:45.725 V:43.737 Avg:41.580 Global:41.567 kb/s:42.41
